<svg width="253" height="135" viewBox="0 0 253 135" fill="none" xmlns="http://www.w3.org/2000/svg">
<path fill-rule="evenodd" clip-rule="evenodd" d="M13.1345 52.1798C7.64764 52.339 4.95928 55.6522 1.1819 57.4219C0.778238 58.1054 1.93331 57.7689 1.88527 58.6797C3.37867 58.5663 3.30545 57.7658 4.48997 57.6595C8.49182 57.3009 8.56168 63.3523 12.0113 63.8102C11.0348 60.8992 12.7225 57.3957 10.6462 55.4052C11.3385 54.245 12.0213 53.0789 13.1345 52.1798Z" fill="black"/>
<path fill-rule="evenodd" clip-rule="evenodd" d="M169.575 40.4314C171.083 41.1815 172.69 41.7612 173.403 43.7935C172.577 44.9767 171.284 45.877 169.579 46.5144C169.571 47.1458 170.292 46.5925 170.184 47.3865C174.587 45.9524 179.432 44.7989 180.757 41.4543C179.552 41.7206 178.568 41.6328 177.249 42.0731C176.641 41.6761 177.127 41.0305 176.844 40.3447C175.094 39.2589 171.787 39.2009 169.575 40.4314Z" fill="black"/>
<path fill-rule="evenodd" clip-rule="evenodd" d="M70.3177 68.5881C69.704 69.9097 68.0462 70.5768 66.4954 71.3169C66.736 71.8901 67.2707 72.0099 67.5765 72.4778C69.3078 72.1942 70.1325 70.1689 71.6712 70.9117C73.9345 71.9915 76.1328 75.4088 79.5662 74.3332C78.5208 72.3134 77.511 70.2363 76.0547 68.869C76.5321 67.6285 77.3365 66.5975 78.3494 65.6892C77.1611 65.3957 75.7094 66.3497 74.5075 66.5908C73.3521 66.1588 71.7706 63.3162 70.3378 63.5135C68.4543 63.7756 68.0468 67.8945 70.3177 68.5881Z" fill="black"/>
<path fill-rule="evenodd" clip-rule="evenodd" d="M53.8967 71.2261C52.441 72.1974 53.1032 76.1389 54.9064 77.2776C54.0062 78.5274 52.4366 79.3619 50.934 80.2379C51.1844 80.5389 51.5296 80.6869 51.7402 81.0627C52.7698 80.4694 54.7228 79.6676 56.1176 79.8309C58.0957 82.2042 60.2399 84.3096 63.8129 84.1089C63.1625 82.1354 61.5198 79.5198 60.1216 77.8772C60.9022 76.8845 61.4419 75.7356 62.7007 75.0395C61.9221 74.4372 60.189 75.3755 58.9539 75.5099C57.3051 73.8444 56.3144 71.1166 54.6893 69.4128C53.9807 69.7017 53.2475 70.618 53.8967 71.2261Z" fill="black"/>
<path fill-rule="evenodd" clip-rule="evenodd" d="M58.3407 91.8929C59.2312 91.9619 60.114 92.0328 61.0224 92.0731C60.9926 92.9224 61.0834 93.3099 62.0599 93.0481C61.1001 94.1483 59.731 95.0011 57.9986 95.6285C58.1691 95.9728 58.6303 95.8482 58.6111 96.4988C62.8902 95.1265 67.9903 94.224 69.1843 90.5665C67.9537 90.7899 66.4959 91.3691 65.4906 91.2289C66.3099 87.8556 58.9574 90.0963 58.3407 91.8929Z" fill="black"/>
<path fill-rule="evenodd" clip-rule="evenodd" d="M106.486 81.0026C107.373 83.3947 108.811 84.4393 109.641 87.5643C108.763 88.6619 107.054 89.251 105.535 89.951C106.023 90.2208 106.345 90.7585 106.661 91.3057C107.796 91.1292 108.15 90.4739 108.789 89.9967C113.56 89.7439 115.003 86.9765 117.533 84.9028C116.645 84.3916 114.928 85.2278 113.6 85.4169C113.274 81.9362 109.059 79.9898 106.486 81.0026Z" fill="black"/>
<path fill-rule="evenodd" clip-rule="evenodd" d="M237.314 61.2592C238.899 61.713 240.127 61.1961 240.646 62.5052C240.668 62.5654 241.105 62.8962 241.124 62.8018C240.952 64.126 238.552 64.0677 237.687 65.4319C238.212 66.1019 239.289 65.2603 239.802 64.9356C244.282 65.0127 246.519 62.3207 248.44 60.2671C247.595 59.8685 246.137 60.4478 244.889 60.6999C244.239 60.5417 244.853 59.8169 244.573 59.3512C242.323 58.9225 239.111 60.0361 237.314 61.2592Z" fill="black"/>
<path fill-rule="evenodd" clip-rule="evenodd" d="M132.772 91.0669C132.099 92.3452 130.537 93.0716 128.948 93.788C129.19 94.3689 129.539 94.7776 129.888 95.1864C131.305 94.6413 131.968 93.6352 133.938 93.4265C136.561 95.3786 138.365 98.6512 142.097 98.8139C140.818 96.2848 140.025 92.9709 138.135 91.4273C138.636 90.1485 139.855 89.3147 140.623 88.202C139.184 88.5807 138.059 88.4523 136.542 88.9554C135.533 87.4015 133.989 86.7088 132.416 86.064C130.952 86.7184 131.019 90.4562 132.772 91.0669Z" fill="black"/>
<path fill-rule="evenodd" clip-rule="evenodd" d="M177.905 86.3619C179.227 87.6461 176.286 88.6227 175.178 89.4388C175.17 90.0702 175.898 89.515 175.79 90.309C177.269 89.8556 177.926 88.8919 179.885 88.7429C182.348 91.7548 184.178 94.0892 187.07 95.1685C186.989 92.906 185.348 88.5892 183.887 86.7815C184.395 85.6728 184.99 84.6174 186.033 83.8409C183.145 83.791 180.63 85.2643 177.905 86.3619Z" fill="black"/>
</svg>
