<svg width="63" height="63" viewBox="0 0 63 63" fill="none" xmlns="http://www.w3.org/2000/svg">
<rect x="1.06066" y="31.1133" width="42.5" height="42.5" transform="rotate(-45 1.06066 31.1133)" stroke="#569602" stroke-width="1.5"/>
<path d="M39.7452 41.7116C39.8931 42.2353 41.4411 41.5877 41.964 41.5112C42.6545 41.4097 43.7773 41.4204 43.3382 40.3764C42.7526 40.5441 42.3157 40.7888 42.3707 39.8914C42.0001 39.8411 41.0644 40.2091 40.8309 40.4874C40.6882 40.6576 40.6009 40.9694 40.4319 41.1745C40.2233 41.4273 40.0092 41.6681 39.7383 41.8178C39.8273 42.0074 39.7981 41.8384 39.8527 41.8191" stroke="#C4D600" stroke-width="0.75" stroke-miterlimit="10" stroke-linecap="round" stroke-linejoin="round"/>
<path d="M33.3842 33.9304L15 33.2441L17.3099 25.4334L34.3104 25.9859C34.429 25.9609 34.6305 25.3004 34.8267 25.8397C35.2525 25.9189 35.1054 25.5284 35.1885 25.2952C35.3552 24.8274 35.4905 25.0845 35.9277 24.9291C36.2414 24.8174 36.369 24.5157 36.6184 24.3374C36.8657 24.1606 37.2186 24.0615 37.4984 24C37.6883 24.242 38.0021 24.161 38.1821 24.3732C38.3868 24.6145 38.2327 25.1401 38.2919 25.4323C38.3588 25.7631 38.6223 26.3481 38.8843 26.5868C39.2347 26.9062 39.5736 26.8137 39.5835 26.2692C40.2114 26.1248 40.1227 26.698 39.9006 27.0808C39.6841 27.4547 39.2213 27.6768 38.7886 27.7759C38.5546 27.4506 37.817 27.8208 37.8746 28.1892C38.0291 28.2069 38.0653 28.2839 38.1747 28.369C37.8 28.6681 36.601 29.3905 36.7186 29.7998C37.1872 29.9048 36.4451 30.3715 36.5149 30.639C36.6495 31.1562 37.1935 30.8626 37.4396 30.9094C37.5908 30.5528 38.6873 31.323 38.9087 31.5979C39.14 31.8856 39.1633 32.2562 39.4028 32.5358C39.602 32.7686 39.7872 32.9634 39.9431 33.2246C39.7354 33.6523 38.8455 33.8 39.3426 34.3113C39.6112 34.5876 40.0995 34.7177 40.3962 35.0223C40.8035 35.4415 40.513 35.8136 40.6963 36.3006C40.8382 36.6778 41.4643 36.9585 41.842 37.0834C42.2922 37.2322 42.6821 37.3693 43.1392 37.1869C43.3277 37.1118 43.4715 36.9442 43.6888 36.9084C43.8891 36.8753 44.0669 36.9644 44.2435 36.9464C45.2591 36.8421 45.3818 35.8096 44.9709 35.1148C44.8193 34.8588 44.7365 34.9453 44.6589 34.5968C44.6046 34.3533 44.6371 34.1887 44.51 33.9636C44.3991 33.7676 44.2217 33.5016 43.9663 33.5381C43.575 33.5937 43.8111 33.9688 43.5606 34.1331C43.3861 33.9198 42.9533 33.4725 43.2102 33.1572C43.4379 32.8772 44.0392 33.0216 44.2871 33.1237C44.5599 33.236 45.0344 33.4622 45.2133 33.6866C45.3955 33.915 45.3803 34.3077 45.4561 34.5858C45.6767 35.3948 45.9051 35.9797 45.9066 36.8075C45.907 37.1711 46.0393 37.5557 45.9883 37.9137C45.9343 38.2943 45.6343 38.4895 45.4883 38.8203C45.5526 38.4262 45.4314 38.1841 45.0743 38.0968C44.6368 37.9893 44.462 38.333 44.1042 38.4199C43.9335 38.4615 43.766 38.3543 43.5938 38.3731C43.4523 38.3886 43.3237 38.4895 43.2183 38.5017C42.8683 38.5422 42.59 38.3127 42.2955 38.3797C41.8572 38.4796 41.519 39.0546 41.138 39.2454C40.7351 39.4469 40.4332 39.3784 40.0492 39.6518C39.6478 39.9376 38.0162 41.3994 37.5937 40.8951C37.695 40.6836 37.889 40.6836 38.0553 40.5484C38.2823 40.3638 38.446 40.1181 38.6415 39.9037C38.8281 39.6993 39.6061 39.1603 39.6722 38.9176C39.7225 38.7334 39.5396 38.617 39.5384 38.5009C39.5366 38.3116 39.7661 38.0677 39.7543 37.923C39.7236 37.5417 39.2783 37.598 39.0706 37.3501C38.8056 37.6338 38.7317 38.0213 38.4327 38.2353C38.2253 38.3834 37.7748 38.8804 37.4592 38.7489C37.1406 39.6886 36.6376 39.784 35.7407 39.9689C35.4879 39.43 35.4565 38.7246 35.3179 38.1502C35.2406 38.1746 35.1431 38.1396 35.0581 38.1823C34.8714 37.99 34.84 37.7557 34.6903 37.5424C34.5085 37.2831 34.1973 37.2337 33.9863 37.0381C33.5982 36.6782 34.119 35.5244 33.4378 35.5115C33.4548 35.1008 33.188 34.2557 33.3842 33.9304ZM33.3842 33.9304C33.3872 33.9735 33.4035 34.0115 33.4327 34.0443" stroke="#C4D600" stroke-miterlimit="10" stroke-linecap="round" stroke-linejoin="round"/>
</svg>
