<svg width="138" height="21" viewBox="0 0 138 21" fill="none" xmlns="http://www.w3.org/2000/svg">
<path fill-rule="evenodd" clip-rule="evenodd" d="M133.414 10.3772L126.206 4.41956L128.117 2.1072L136.288 8.86032L137.213 9.62546L136.669 10.6961L131.645 20.5821L128.97 19.2229L131.533 14.1808L124.851 14.9941L119.528 15.3582L119.285 11.8136L124.517 11.4603L133.414 10.3772ZM112.583 15.8273L113.738 15.7486L113.5 12.2019L105.396 12.4643L99.8014 10.935L98.862 14.362L104.712 15.9618C104.879 16.0086 105.054 16.0235 105.228 16.022L112.583 15.8273ZM88.3609 9.47058L93.1613 12.0222L94.828 8.88568L89.8467 6.25402L82.5021 3.36387L81.1192 3.02834L80.2872 6.48245L81.4336 6.73944L88.3609 9.47058ZM67.4677 4.21902L74.8168 5.20386L75.2859 1.69141L67.7383 0.690425L60.6506 0.550781L60.5805 4.10029L67.4677 4.21902ZM49.9819 5.33228L55.0762 4.67194L54.6233 1.14977L49.2686 1.85985L40.2573 4.4153L41.2286 7.83323L49.9819 5.33228ZM35.1305 9.56626L35.642 9.41985L34.6755 6.00004L20.8282 8.32206L20.8118 8.32343L21.1553 11.8531L35.1305 9.56626ZM7.49963 12.6008L15.1551 12.1871L14.965 8.64793L7.09356 9.06985C6.94951 9.07536 6.80885 9.10198 6.66958 9.14485L0.333008 11.0703L1.37296 14.4644L7.49963 12.6008Z" fill="#C4D600"/>
</svg>
