<svg width="101" height="16" viewBox="0 0 101 16" fill="none" xmlns="http://www.w3.org/2000/svg">
<path fill-rule="evenodd" clip-rule="evenodd" d="M95.7988 7.28527L91.639 3.84693L93.5504 1.53459L99.4731 6.43022L100.399 7.19535L99.8547 8.26598L96.2124 15.4327L93.538 14.0736L95.6625 9.89313L90.9199 10.4704L87.0612 10.7344L86.8851 8.16478L90.6778 7.90868L95.7988 7.28527ZM82.0268 11.0744L82.8636 11.0174L82.6909 8.44627L76.8167 8.63649L72.7607 7.52788L72.0797 10.0122L76.3209 11.172C76.4416 11.2059 76.5687 11.2166 76.6948 11.2156L82.0268 11.0744ZM64.4672 6.46625L67.9472 8.31598L69.1553 6.04223L65.5443 4.13446L60.22 2.0393L59.2175 1.79606L58.6144 4.30006L59.4454 4.48636L64.4672 6.46625ZM49.3211 2.65923L54.6487 3.37317L54.9888 0.826879L49.5173 0.101232L44.3793 0L44.3284 2.57315L49.3211 2.65923ZM36.6452 3.46626L40.3382 2.98756L40.0099 0.434224L36.1281 0.948985L29.5956 2.80151L30.2997 5.27928L36.6452 3.46626ZM25.879 6.5356L26.2498 6.42946L25.5491 3.95034L15.5108 5.63364L15.499 5.63464L15.748 8.1934L25.879 6.5356ZM5.84861 8.73547L11.3982 8.43553L11.2605 5.86988L5.55423 6.17574C5.44981 6.17974 5.34784 6.19903 5.24688 6.23011L0.65332 7.62591L1.40721 10.0864L5.84861 8.73547Z" fill="#C4D600"/>
</svg>
